<svg width="419" height="397" viewBox="0 0 419 397" fill="none" xmlns="http://www.w3.org/2000/svg">
<g opacity="0.2">
<path d="M88.5387 2.27579H127.92V54.3683H78.6071" stroke="black" stroke-width="0.465314" stroke-linecap="round" stroke-linejoin="round"/>
<path d="M73.4554 54.3683H61.4613V2.27579H83.387" stroke="black" stroke-width="0.465314" stroke-linecap="round" stroke-linejoin="round"/>
<path d="M73.774 17.3946H66.4802V24.6884H73.774V17.3946Z" stroke="black" stroke-width="0.465314" stroke-linecap="round" stroke-linejoin="round"/>
<path d="M83.5994 17.3946H76.3056V24.6884H83.5994V17.3946Z" stroke="black" stroke-width="0.465314" stroke-linecap="round" stroke-linejoin="round"/>
<path d="M93.4249 17.3946H86.1311V24.6884H93.4249V17.3946Z" stroke="black" stroke-width="0.465314" stroke-linecap="round" stroke-linejoin="round"/>
<path d="M103.25 17.3946H95.9565V24.6884H103.25V17.3946Z" stroke="black" stroke-width="0.465314" stroke-linecap="round" stroke-linejoin="round"/>
<path d="M113.085 17.3946H105.791V24.6884H113.085V17.3946Z" stroke="black" stroke-width="0.465314" stroke-linecap="round" stroke-linejoin="round"/>
<path d="M122.91 17.3946H115.616V24.6884H122.91V17.3946Z" stroke="black" stroke-width="0.465314" stroke-linecap="round" stroke-linejoin="round"/>
<path d="M73.774 27.5386H66.4802V34.8325H73.774V27.5386Z" stroke="black" stroke-width="0.465314" stroke-linecap="round" stroke-linejoin="round"/>
<path d="M83.5994 27.5386H76.3056V34.8325H83.5994V27.5386Z" stroke="black" stroke-width="0.465314" stroke-linecap="round" stroke-linejoin="round"/>
<path d="M93.4249 27.5386H86.1311V34.8325H93.4249V27.5386Z" stroke="black" stroke-width="0.465314" stroke-linecap="round" stroke-linejoin="round"/>
<path d="M103.25 27.5386H95.9565V34.8325H103.25V27.5386Z" stroke="black" stroke-width="0.465314" stroke-linecap="round" stroke-linejoin="round"/>
<path d="M113.085 27.5386H105.791V34.8325H113.085V27.5386Z" stroke="black" stroke-width="0.465314" stroke-linecap="round" stroke-linejoin="round"/>
<path d="M122.91 27.5386H115.616V34.8325H122.91V27.5386Z" stroke="black" stroke-width="0.465314" stroke-linecap="round" stroke-linejoin="round"/>
<path d="M73.774 37.6828H66.4802V44.9766H73.774V37.6828Z" stroke="black" stroke-width="0.465314" stroke-linecap="round" stroke-linejoin="round"/>
<path d="M83.5994 37.6828H76.3056V44.9766H83.5994V37.6828Z" stroke="black" stroke-width="0.465314" stroke-linecap="round" stroke-linejoin="round"/>
<path d="M93.4249 37.6828H86.1311V44.9766H93.4249V37.6828Z" stroke="black" stroke-width="0.465314" stroke-linecap="round" stroke-linejoin="round"/>
<path d="M103.25 37.6828H95.9565V44.9766H103.25V37.6828Z" stroke="black" stroke-width="0.465314" stroke-linecap="round" stroke-linejoin="round"/>
<path d="M113.085 37.6828H105.791V44.9766H113.085V37.6828Z" stroke="black" stroke-width="0.465314" stroke-linecap="round" stroke-linejoin="round"/>
<path d="M122.91 37.6828H115.616V44.9766H122.91V37.6828Z" stroke="black" stroke-width="0.465314" stroke-linecap="round" stroke-linejoin="round"/>
<path d="M123.184 9.46341H66.7546V11.995H123.184V9.46341Z" stroke="black" stroke-width="0.465314" stroke-linecap="round" stroke-linejoin="round"/>
</g>
<g opacity="0.2">
<path d="M378.079 61.8126H402.926V113.914H396.473" stroke="black" stroke-width="0.465314" stroke-linecap="round" stroke-linejoin="round"/>
<path d="M392.056 113.914H336.458V61.8126H372.193" stroke="black" stroke-width="0.465314" stroke-linecap="round" stroke-linejoin="round"/>
<path d="M348.771 76.9313H341.477V84.2252H348.771V76.9313Z" stroke="black" stroke-width="0.465314" stroke-linecap="round" stroke-linejoin="round"/>
<path d="M358.605 76.9313H351.311V84.2252H358.605V76.9313Z" stroke="black" stroke-width="0.465314" stroke-linecap="round" stroke-linejoin="round"/>
<path d="M368.431 76.9313H361.137V84.2252H368.431V76.9313Z" stroke="black" stroke-width="0.465314" stroke-linecap="round" stroke-linejoin="round"/>
<path d="M378.256 76.9313H370.962V84.2252H378.256V76.9313Z" stroke="black" stroke-width="0.465314" stroke-linecap="round" stroke-linejoin="round"/>
<path d="M388.082 76.9313H380.788V84.2252H388.082V76.9313Z" stroke="black" stroke-width="0.465314" stroke-linecap="round" stroke-linejoin="round"/>
<path d="M397.907 76.9313H390.613V84.2252H397.907V76.9313Z" stroke="black" stroke-width="0.465314" stroke-linecap="round" stroke-linejoin="round"/>
<path d="M348.771 87.0754H341.477V94.3693H348.771V87.0754Z" stroke="black" stroke-width="0.465314" stroke-linecap="round" stroke-linejoin="round"/>
<path d="M358.605 87.0754H351.311V94.3693H358.605V87.0754Z" stroke="black" stroke-width="0.465314" stroke-linecap="round" stroke-linejoin="round"/>
<path d="M368.431 87.0754H361.137V94.3693H368.431V87.0754Z" stroke="black" stroke-width="0.465314" stroke-linecap="round" stroke-linejoin="round"/>
<path d="M378.256 87.0754H370.962V94.3693H378.256V87.0754Z" stroke="black" stroke-width="0.465314" stroke-linecap="round" stroke-linejoin="round"/>
<path d="M388.082 87.0754H380.788V94.3693H388.082V87.0754Z" stroke="black" stroke-width="0.465314" stroke-linecap="round" stroke-linejoin="round"/>
<path d="M397.907 87.0754H390.613V94.3693H397.907V87.0754Z" stroke="black" stroke-width="0.465314" stroke-linecap="round" stroke-linejoin="round"/>
<path d="M348.771 97.2195H341.477V104.513H348.771V97.2195Z" stroke="black" stroke-width="0.465314" stroke-linecap="round" stroke-linejoin="round"/>
<path d="M358.605 97.2195H351.311V104.513H358.605V97.2195Z" stroke="black" stroke-width="0.465314" stroke-linecap="round" stroke-linejoin="round"/>
<path d="M368.431 97.2195H361.137V104.513H368.431V97.2195Z" stroke="black" stroke-width="0.465314" stroke-linecap="round" stroke-linejoin="round"/>
<path d="M378.256 97.2195H370.962V104.513H378.256V97.2195Z" stroke="black" stroke-width="0.465314" stroke-linecap="round" stroke-linejoin="round"/>
<path d="M388.082 97.2195H380.788V104.513H388.082V97.2195Z" stroke="black" stroke-width="0.465314" stroke-linecap="round" stroke-linejoin="round"/>
<path d="M397.907 97.2195H390.613V104.513H397.907V97.2195Z" stroke="black" stroke-width="0.465314" stroke-linecap="round" stroke-linejoin="round"/>
<path d="M398.19 69.009H341.76V71.5495H398.19V69.009Z" stroke="black" stroke-width="0.465314" stroke-linecap="round" stroke-linejoin="round"/>
</g>
<g opacity="0.2">
<path d="M28.6036 145.125V117.941C28.5989 117.494 28.6829 117.051 28.8507 116.637C29.0186 116.222 29.2669 115.845 29.5814 115.528C29.8958 115.21 30.2702 114.958 30.6827 114.785C31.0953 114.613 31.5379 114.525 31.985 114.525H74.4733C75.3724 114.525 76.2348 114.882 76.8705 115.518C77.5063 116.153 77.8635 117.016 77.8635 117.915V157.013H28.6036V151.012" stroke="black" stroke-width="0.465314" stroke-linecap="round" stroke-linejoin="round"/>
<path d="M29.2144 123.784H77.2173" stroke="black" stroke-width="0.465314" stroke-linecap="round" stroke-linejoin="round"/>
<path d="M40.7128 131.786H33.5252V137.318H72.9066V131.786H48.0686" stroke="black" stroke-width="0.465314" stroke-linecap="round" stroke-linejoin="round"/>
<path d="M72.9066 143.479H33.5252V149.02H72.9066V143.479Z" stroke="black" stroke-width="0.465314" stroke-linecap="round" stroke-linejoin="round"/>
</g>
<g opacity="0.2">
<path d="M232.034 342.899H274.523C275.419 342.899 276.279 343.256 276.914 343.89C277.548 344.524 277.904 345.384 277.904 346.281V385.388H228.653V346.316C228.648 345.869 228.732 345.426 228.9 345.011C229.068 344.597 229.316 344.22 229.631 343.902C229.945 343.585 230.319 343.332 230.732 343.16C231.145 342.988 231.587 342.899 232.034 342.899V342.899Z" stroke="black" stroke-width="0.465314" stroke-linecap="round" stroke-linejoin="round"/>
<path d="M229.264 352.158H277.267" stroke="black" stroke-width="0.465314" stroke-linecap="round" stroke-linejoin="round"/>
<path d="M272.956 360.16H233.574V365.702H272.956V360.16Z" stroke="black" stroke-width="0.465314" stroke-linecap="round" stroke-linejoin="round"/>
<path d="M272.956 371.854H233.574V377.395H272.956V371.854Z" stroke="black" stroke-width="0.465314" stroke-linecap="round" stroke-linejoin="round"/>
</g>
<g opacity="0.2">
<path d="M241.576 11.5878C236.294 6.55919 229.231 3.83487 221.94 4.01415C214.649 4.19343 207.728 7.26164 202.7 12.5438C197.671 17.826 194.947 24.8894 195.126 32.1802C195.305 39.471 198.373 46.392 203.656 51.4206" stroke="black" stroke-width="0.465314" stroke-linecap="round" stroke-linejoin="round"/>
<path d="M206.754 54.0939C212.21 58.132 218.968 60.0086 225.726 59.3624C232.483 58.7162 238.763 55.5928 243.355 50.5937C247.948 45.5946 250.528 39.0733 250.6 32.2853C250.672 25.4973 248.231 18.9227 243.745 13.8273" stroke="black" stroke-width="0.465314" stroke-linecap="round" stroke-linejoin="round"/>
<path d="M235.699 31.9999H223.121V53.3592" stroke="black" stroke-width="0.465314" stroke-linecap="round" stroke-linejoin="round"/>
</g>
<g opacity="0.2">
<path d="M28.5239 51.0223C26.616 51.3238 24.7925 52.0218 23.1708 53.0712C21.5491 54.1205 20.1653 55.4981 19.1086 57.115C18.0518 58.7319 17.3456 60.5522 17.0354 62.4587C16.7252 64.3653 16.8179 66.3156 17.3076 68.1841C17.7972 70.0526 18.6729 71.7978 19.8783 73.3071C21.0836 74.8165 22.5919 76.0565 24.3058 76.9474C26.0197 77.8382 27.9012 78.36 29.8291 78.4792C31.757 78.5984 33.6885 78.3124 35.4991 77.6395" stroke="black" stroke-width="0.465314" stroke-linecap="round" stroke-linejoin="round"/>
<path d="M39.9958 74.8777C41.9348 73.0901 43.3224 70.7855 43.9952 68.2355C44.6681 65.6855 44.598 62.9963 43.7934 60.4847C42.9888 57.9732 41.4831 55.7439 39.4537 54.0596C37.4243 52.3753 34.9558 51.3061 32.339 50.978" stroke="black" stroke-width="0.465314" stroke-linecap="round" stroke-linejoin="round"/>
<path d="M30.6483 57.6434V71.7265" stroke="black" stroke-width="0.465314" stroke-miterlimit="10"/>
<path d="M37.6943 64.6894H23.6024" stroke="black" stroke-width="0.465314" stroke-miterlimit="10"/>
</g>
<g opacity="0.2">
<path d="M402.705 186.25C410.341 186.25 416.531 180.06 416.531 172.424C416.531 164.788 410.341 158.597 402.705 158.597C395.069 158.597 388.878 164.788 388.878 172.424C388.878 180.06 395.069 186.25 402.705 186.25Z" stroke="black" stroke-width="0.465314" stroke-linecap="round" stroke-linejoin="round"/>
<path d="M402.705 165.378V179.47" stroke="black" stroke-width="0.465314" stroke-miterlimit="10"/>
<path d="M409.742 172.424H395.659" stroke="black" stroke-width="0.465314" stroke-miterlimit="10"/>
</g>
<path d="M377.008 357.062H59.2306L59.6024 95.4669C59.6024 92.9479 60.6031 90.532 62.3843 88.7508C64.1655 86.9696 66.5813 85.969 69.1003 85.969H367.882C369.13 85.9678 370.365 86.2127 371.518 86.6896C372.671 87.1665 373.718 87.866 374.601 88.7482C375.483 89.6304 376.182 90.6779 376.659 91.8308C377.136 92.9837 377.381 94.2193 377.38 95.4669L377.008 357.062Z" fill="white" stroke="#263238" stroke-width="0.465314" stroke-linecap="round" stroke-linejoin="round"/>
<path d="M146.615 109.214H101.498V118.499H146.615V109.214Z" stroke="#263238" stroke-width="0.465314" stroke-linecap="round" stroke-linejoin="round"/>
<path d="M283.392 121.863H365.669" stroke="#263238" stroke-width="0.465314" stroke-linecap="round" stroke-linejoin="round"/>
<path d="M77.2439 121.863H278.594" stroke="#263238" stroke-width="0.465314" stroke-linecap="round" stroke-linejoin="round"/>
<path d="M367.882 85.969H69.1003C66.5813 85.969 64.1655 86.9696 62.3843 88.7508C60.6031 90.532 59.6024 92.9479 59.6024 95.4669V102.699H377.38V95.4669C377.381 94.2193 377.136 92.9837 376.659 91.8308C376.182 90.6779 375.483 89.6304 374.6 88.7482C373.718 87.866 372.671 87.1665 371.518 86.6896C370.365 86.2127 369.13 85.9678 367.882 85.969Z" fill="#263238" stroke="#263238" stroke-width="0.465314" stroke-linecap="round" stroke-linejoin="round"/>
<path d="M76.9341 95.2544C76.9341 94.6872 76.7659 94.1327 76.4508 93.6611C76.1357 93.1894 75.6877 92.8219 75.1637 92.6048C74.6396 92.3877 74.063 92.3309 73.5067 92.4416C72.9503 92.5522 72.4393 92.8254 72.0382 93.2265C71.6371 93.6276 71.364 94.1386 71.2533 94.6949C71.1426 95.2512 71.1994 95.8279 71.4165 96.352C71.6336 96.876 72.0012 97.3239 72.4728 97.6391C72.9444 97.9542 73.4989 98.1224 74.0662 98.1224C74.8268 98.1224 75.5563 97.8202 76.0941 97.2824C76.632 96.7445 76.9341 96.0151 76.9341 95.2544Z" fill="white" stroke="#263238" stroke-width="0.465314" stroke-linecap="round" stroke-linejoin="round"/>
<path d="M88.3794 95.2544C88.3794 94.6872 88.2112 94.1327 87.8961 93.6611C87.581 93.1894 87.133 92.8219 86.609 92.6048C86.0849 92.3877 85.5083 92.3309 84.9519 92.4416C84.3956 92.5522 83.8846 92.8254 83.4835 93.2265C83.0824 93.6276 82.8093 94.1386 82.6986 94.6949C82.5879 95.2512 82.6447 95.8279 82.8618 96.352C83.0789 96.876 83.4465 97.3239 83.9181 97.6391C84.3897 97.9542 84.9442 98.1224 85.5115 98.1224C86.2721 98.1224 87.0016 97.8202 87.5394 97.2824C88.0773 96.7445 88.3794 96.0151 88.3794 95.2544Z" fill="white" stroke="#263238" stroke-width="0.465314" stroke-linecap="round" stroke-linejoin="round"/>
<path d="M96.9744 98.1224C98.5584 98.1224 99.8424 96.8384 99.8424 95.2544C99.8424 93.6705 98.5584 92.3865 96.9744 92.3865C95.3905 92.3865 94.1065 93.6705 94.1065 95.2544C94.1065 96.8384 95.3905 98.1224 96.9744 98.1224Z" fill="white" stroke="#263238" stroke-width="0.465314" stroke-linecap="round" stroke-linejoin="round"/>
<path d="M77.9432 109.762H91.5395" stroke="#263238" stroke-width="0.465314" stroke-linecap="round" stroke-linejoin="round"/>
<path d="M77.9432 113.418H91.5395" stroke="#263238" stroke-width="0.465314" stroke-linecap="round" stroke-linejoin="round"/>
<path d="M77.9432 117.065H91.5395" stroke="#263238" stroke-width="0.465314" stroke-linecap="round" stroke-linejoin="round"/>
<path d="M80.4748 142.018V130.298H78.076V128.98H84.3342V130.298H81.9265V142.018H80.4748Z" fill="#263238"/>
<path d="M86.0868 139.389L85.5822 142.045H84.2368L86.733 129.006H88.8397L91.3359 142.045H89.8842L89.3796 139.389H86.0868ZM86.2727 138.141H89.1761L87.7067 130.617L86.2727 138.141Z" fill="#263238"/>
<path d="M98.1163 132.104V132.458H96.7355V132.033C96.7355 130.856 96.2929 130.166 95.2484 130.166C94.2039 130.166 93.7613 130.856 93.7613 132.016C93.7613 134.937 98.1341 135.22 98.1341 138.885C98.1341 140.859 97.1869 142.142 95.1953 142.142C93.2036 142.142 92.2654 140.859 92.2654 138.885V138.141H93.6285V138.964C93.6285 140.133 94.1154 140.823 95.1599 140.823C96.2044 140.823 96.6824 140.133 96.6824 138.964C96.6824 136.052 92.3273 135.778 92.3273 132.104C92.3273 130.095 93.2125 128.847 95.213 128.847C97.2135 128.847 98.1163 130.13 98.1163 132.104Z" fill="#263238"/>
<path d="M101.622 136.353L100.852 137.637V142.018H99.3998V128.98H100.834V135.273L104.304 128.98H105.773L102.498 134.884L105.906 141.965H104.375L101.622 136.353Z" fill="#263238"/>
<path d="M112.571 132.104V132.458H111.19V132.033C111.19 130.856 110.748 130.166 109.703 130.166C108.659 130.166 108.216 130.856 108.216 132.016C108.216 134.937 112.589 135.22 112.589 138.885C112.589 140.859 111.642 142.142 109.65 142.142C107.659 142.142 106.72 140.859 106.72 138.885V138.141H108.083V138.964C108.083 140.133 108.57 140.823 109.615 140.823C110.659 140.823 111.137 140.133 111.137 138.964C111.137 136.052 106.782 135.778 106.782 132.104C106.782 130.095 107.712 128.847 109.668 128.847C111.624 128.847 112.571 130.13 112.571 132.104Z" fill="#263238"/>
<path d="M277.435 215.213H77.4652V268.642H277.435V215.213Z" fill="white" stroke="#263238" stroke-width="0.465314" stroke-linecap="round" stroke-linejoin="round"/>
<path d="M231.556 229.155C232.441 229.155 232.804 229.668 232.804 230.509V231.182C232.804 232.067 232.388 232.527 231.512 232.527H230.954V234.731H230.335V229.155H231.556ZM231.512 231.97C231.972 231.97 232.194 231.757 232.194 231.226V230.482C232.194 229.969 232.008 229.712 231.556 229.712H230.954V231.97H231.512Z" fill="#263238"/>
<path d="M234.495 229.155C235.38 229.155 235.743 229.597 235.743 230.429V230.881C235.78 231.123 235.731 231.37 235.605 231.58C235.479 231.79 235.284 231.95 235.053 232.031C235.557 232.182 235.752 232.589 235.752 233.191V234.076C235.735 234.306 235.772 234.536 235.858 234.749H235.23C235.146 234.532 235.112 234.299 235.132 234.067V233.182C235.132 232.554 234.831 232.359 234.318 232.359H233.875V234.74H233.256V229.164L234.495 229.155ZM234.345 231.81C234.831 231.81 235.132 231.651 235.132 231.04V230.482C235.132 229.978 234.946 229.712 234.486 229.712H233.875V231.784L234.345 231.81Z" fill="#263238"/>
<path d="M236.38 230.482C236.38 229.597 236.805 229.075 237.655 229.075C238.505 229.075 238.939 229.624 238.939 230.482V233.368C238.953 233.545 238.931 233.723 238.874 233.891C238.816 234.059 238.724 234.213 238.604 234.344C238.484 234.474 238.338 234.579 238.175 234.65C238.013 234.721 237.837 234.758 237.66 234.758C237.482 234.758 237.306 234.721 237.144 234.65C236.981 234.579 236.835 234.474 236.715 234.344C236.595 234.213 236.503 234.059 236.445 233.891C236.388 233.723 236.366 233.545 236.38 233.368V230.482ZM237 233.395C237 233.908 237.213 234.2 237.655 234.2C238.098 234.2 238.319 233.908 238.319 233.395V230.482C238.319 229.978 238.115 229.677 237.655 229.677C237.195 229.677 237 229.978 237 230.482V233.395Z" fill="#263238"/>
<path d="M241.992 230.482V230.96H241.399V230.482C241.399 229.978 241.205 229.677 240.744 229.677C240.284 229.677 240.098 229.978 240.098 230.482V233.43C240.098 233.935 240.302 234.236 240.744 234.236C241.187 234.236 241.399 233.935 241.399 233.43V232.315H240.824V231.757H241.992V233.403C241.992 234.289 241.594 234.802 240.736 234.802C239.877 234.802 239.479 234.244 239.479 233.403V230.482C239.479 229.597 239.877 229.075 240.736 229.075C241.594 229.075 241.992 229.65 241.992 230.482Z" fill="#263238"/>
<path d="M243.825 229.155C244.71 229.155 245.064 229.597 245.064 230.429V230.881C245.101 231.123 245.052 231.37 244.926 231.58C244.8 231.79 244.605 231.95 244.374 232.031C244.887 232.182 245.073 232.589 245.073 233.191V234.076C245.055 234.307 245.094 234.538 245.188 234.749H244.559C244.471 234.533 244.435 234.3 244.453 234.067V233.182C244.453 232.554 244.161 232.359 243.639 232.359H243.205V234.74H242.577V229.164L243.825 229.155ZM243.665 231.81C244.161 231.81 244.453 231.651 244.453 231.04V230.482C244.453 229.978 244.267 229.712 243.807 229.712H243.205V231.784L243.665 231.81Z" fill="#263238"/>
<path d="M247.702 231.624V232.182H246.339V234.165H248.012V234.731H245.719V229.155H248.012V229.712H246.339V231.624H247.702Z" fill="#263238"/>
<path d="M251.004 230.482V230.633H250.428V230.482C250.428 229.978 250.242 229.686 249.791 229.686C249.339 229.686 249.154 229.978 249.154 230.474C249.154 231.731 251.03 231.846 251.03 233.412C251.03 234.298 250.623 234.811 249.764 234.811C248.906 234.811 248.516 234.262 248.516 233.412V233.094H249.1V233.448C249.1 233.952 249.304 234.244 249.755 234.244C250.207 234.244 250.402 233.952 250.402 233.448C250.402 232.209 248.543 232.085 248.543 230.518C248.543 229.633 248.941 229.119 249.773 229.119C250.605 229.119 251.004 229.642 251.004 230.482Z" fill="#263238"/>
<path d="M253.969 230.482V230.633H253.376V230.482C253.376 229.978 253.181 229.686 252.738 229.686C252.296 229.686 252.101 229.978 252.101 230.474C252.101 231.731 253.969 231.846 253.969 233.412C253.969 234.298 253.571 234.811 252.712 234.811C251.853 234.811 251.464 234.262 251.464 233.412V233.094H252.048V233.448C252.048 233.952 252.252 234.244 252.694 234.244C253.137 234.244 253.349 233.952 253.349 233.448C253.349 232.209 251.49 232.085 251.49 230.518C251.49 229.633 251.889 229.119 252.721 229.119C253.553 229.119 253.969 229.642 253.969 230.482Z" fill="#263238"/>
<path d="M191.591 229.155C192.476 229.155 192.856 229.677 192.856 230.536V233.35C192.856 234.236 192.458 234.731 191.591 234.731H190.281V229.155H191.591ZM191.591 234.165C192.033 234.165 192.255 233.881 192.255 233.377V230.482C192.255 229.969 192.033 229.686 191.582 229.686H190.909V234.112L191.591 234.165Z" fill="#263238"/>
<path d="M195.423 231.624V232.182H194.06V234.165H195.733V234.731H193.441V229.155H195.733V229.712H194.06V231.624H195.423Z" fill="#263238"/>
<path d="M196.937 233.607L196.716 234.731H196.149L197.212 229.155H198.097L199.168 234.731H198.539L198.327 233.607H196.937ZM197.017 233.067H198.256L197.628 229.854L197.017 233.067Z" fill="#263238"/>
<path d="M200.974 229.155C201.859 229.155 202.239 229.677 202.239 230.536V233.35C202.239 234.236 201.841 234.731 200.974 234.731H199.663V229.155H200.974ZM200.974 234.165C201.425 234.165 201.637 233.881 201.637 233.377V230.482C201.637 229.969 201.425 229.686 200.965 229.686H200.301V234.112L200.974 234.165Z" fill="#263238"/>
<path d="M202.824 234.731V229.155H203.443V234.165H205.036V234.731H202.824Z" fill="#263238"/>
<path d="M206.169 229.155V234.731H205.55V229.155H206.169Z" fill="#263238"/>
<path d="M207.311 234.731H206.754V229.155H207.541L208.834 233.182V229.155H209.383V234.731H208.745L207.311 230.217V234.731Z" fill="#263238"/>
<path d="M212.012 231.624V232.182H210.648V234.165H212.366V234.731H210.064V229.155H212.366V229.712H210.693V231.624H212.012Z" fill="#263238"/>
<path d="M154.927 235.528H166.576" stroke="#263238" stroke-width="0.465314" stroke-linecap="round" stroke-linejoin="round"/>
<path d="M119.998 235.528H150.74" stroke="#263238" stroke-width="0.465314" stroke-linecap="round" stroke-linejoin="round"/>
<path d="M87.3703 235.528H115.342" stroke="#263238" stroke-width="0.465314" stroke-linecap="round" stroke-linejoin="round"/>
<path d="M137.701 248.77H146.597" stroke="#263238" stroke-width="0.465314" stroke-linecap="round" stroke-linejoin="round"/>
<path d="M114.873 248.77H130.248" stroke="#263238" stroke-width="0.465314" stroke-linecap="round" stroke-linejoin="round"/>
<path d="M103.702 248.77H110.217" stroke="#263238" stroke-width="0.465314" stroke-linecap="round" stroke-linejoin="round"/>
<path d="M87.3703 248.77H99.9752" stroke="#263238" stroke-width="0.465314" stroke-linecap="round" stroke-linejoin="round"/>
<path d="M270.026 246.3C270.024 247.408 269.583 248.469 268.8 249.252C268.017 250.035 266.955 250.476 265.848 250.479H221.988C220.879 250.479 219.815 250.039 219.03 249.255C218.245 248.472 217.803 247.409 217.801 246.3C217.805 245.191 218.248 244.129 219.032 243.345C219.816 242.561 220.879 242.118 221.988 242.114H265.848C266.397 242.114 266.941 242.222 267.449 242.432C267.956 242.643 268.417 242.952 268.805 243.34C269.193 243.729 269.501 244.191 269.71 244.699C269.92 245.207 270.027 245.751 270.026 246.3Z" fill="white" stroke="#263238" stroke-width="0.465314" stroke-linecap="round" stroke-linejoin="round"/>
<path d="M256.952 242.114V250.479H221.988C220.879 250.479 219.815 250.039 219.03 249.255C218.245 248.472 217.803 247.409 217.801 246.3C217.805 245.191 218.248 244.129 219.032 243.345C219.816 242.561 220.879 242.118 221.988 242.114H256.952Z" fill="#974FD0" stroke="#263238" stroke-width="0.465314" stroke-linecap="round" stroke-linejoin="round"/>
<path d="M209.498 242.114H192.184C189.876 242.114 188.006 243.984 188.006 246.292V246.3C188.006 248.608 189.876 250.479 192.184 250.479H209.498C211.805 250.479 213.676 248.608 213.676 246.3V246.292C213.676 243.984 211.805 242.114 209.498 242.114Z" fill="white" stroke="#263238" stroke-width="0.465314" stroke-linecap="round" stroke-linejoin="round"/>
<path d="M277.435 283.38H77.4652V336.81H277.435V283.38Z" fill="white" stroke="#263238" stroke-width="0.465314" stroke-linecap="round" stroke-linejoin="round"/>
<path d="M231.556 298.446C232.441 298.446 232.804 298.959 232.804 299.809V300.473C232.804 301.358 232.388 301.827 231.512 301.827H230.954V304.023H230.335V298.446H231.556ZM231.512 301.27C231.972 301.27 232.194 301.048 232.194 300.517V299.774C232.194 299.269 232.008 299.013 231.556 299.013H230.954V301.296L231.512 301.27Z" fill="#263238"/>
<path d="M234.495 298.446C235.38 298.446 235.743 298.889 235.743 299.721V300.172C235.743 300.792 235.531 301.172 235.053 301.323C235.557 301.473 235.752 301.889 235.752 302.482V303.368C235.735 303.597 235.771 303.827 235.858 304.04H235.23C235.145 303.827 235.112 303.596 235.132 303.368V302.482C235.132 301.845 234.831 301.65 234.318 301.65H233.875V304.032H233.256V298.455L234.495 298.446ZM234.345 301.102C234.831 301.102 235.132 300.942 235.132 300.34V299.8C235.132 299.305 234.946 299.039 234.486 299.039H233.875V301.102H234.345Z" fill="#263238"/>
<path d="M236.38 299.792C236.38 298.906 236.805 298.393 237.655 298.393C238.505 298.393 238.939 298.942 238.939 299.792V302.677C238.953 302.854 238.931 303.032 238.874 303.2C238.816 303.368 238.724 303.522 238.604 303.653C238.484 303.783 238.338 303.888 238.175 303.959C238.013 304.03 237.837 304.067 237.66 304.067C237.482 304.067 237.306 304.03 237.144 303.959C236.981 303.888 236.835 303.783 236.715 303.653C236.595 303.522 236.503 303.368 236.445 303.2C236.388 303.032 236.366 302.854 236.38 302.677V299.792ZM237 302.713C237 303.217 237.213 303.509 237.655 303.509C238.098 303.509 238.319 303.217 238.319 302.713V299.756C238.319 299.26 238.115 298.959 237.655 298.959C237.195 298.959 237 299.26 237 299.756V302.713Z" fill="#263238"/>
<path d="M241.992 299.792V300.27H241.399V299.756C241.399 299.26 241.205 298.959 240.744 298.959C240.284 298.959 240.098 299.26 240.098 299.756V302.713C240.098 303.208 240.302 303.509 240.744 303.509C241.187 303.509 241.399 303.208 241.399 302.713V301.597H240.824V301.04H241.992V302.677C241.992 303.518 241.594 304.076 240.736 304.076C239.877 304.076 239.479 303.518 239.479 302.677V299.792C239.479 298.951 239.877 298.393 240.736 298.393C241.594 298.393 241.992 298.951 241.992 299.792Z" fill="#263238"/>
<path d="M243.825 298.446C244.71 298.446 245.064 298.889 245.064 299.721V300.172C245.064 300.792 244.852 301.172 244.374 301.323C244.887 301.473 245.073 301.889 245.073 302.482V303.368C245.054 303.598 245.093 303.83 245.188 304.04H244.559C244.471 303.828 244.435 303.597 244.453 303.368V302.482C244.453 301.845 244.161 301.65 243.639 301.65H243.205V304.032H242.577V298.455L243.825 298.446ZM243.665 301.102C244.161 301.102 244.453 300.942 244.453 300.34V299.8C244.453 299.305 244.267 299.039 243.807 299.039H243.205V301.102H243.665Z" fill="#263238"/>
<path d="M247.702 300.916V301.473H246.339V303.456H248.012V304.023H245.719V298.446H248.012V299.013H246.339V300.916H247.702Z" fill="#263238"/>
<path d="M251.004 299.783V299.933H250.428V299.756C250.428 299.252 250.242 298.959 249.791 298.959C249.339 298.959 249.154 299.252 249.154 299.747C249.154 300.995 251.03 301.11 251.03 302.686C251.03 303.527 250.623 304.076 249.764 304.076C248.906 304.076 248.516 303.527 248.516 302.686V302.367H249.1V302.713C249.1 303.217 249.304 303.509 249.755 303.509C250.207 303.509 250.402 303.217 250.402 302.713C250.402 301.473 248.543 301.349 248.543 299.783C248.543 298.898 248.941 298.393 249.773 298.393C250.605 298.393 251.004 298.942 251.004 299.783Z" fill="#263238"/>
<path d="M253.969 299.783V299.933H253.376V299.756C253.376 299.252 253.181 298.959 252.738 298.959C252.296 298.959 252.101 299.252 252.101 299.747C252.101 300.995 253.969 301.11 253.969 302.686C253.969 303.527 253.571 304.076 252.712 304.076C251.853 304.076 251.464 303.527 251.464 302.686V302.367H252.048V302.713C252.048 303.217 252.252 303.509 252.694 303.509C253.137 303.509 253.349 303.217 253.349 302.713C253.349 301.473 251.49 301.349 251.49 299.783C251.49 298.898 251.889 298.393 252.721 298.393C253.553 298.393 253.969 298.942 253.969 299.783Z" fill="#263238"/>
<path d="M191.591 298.446C192.476 298.446 192.856 298.968 192.856 299.836V302.642C192.856 303.527 192.458 304.023 191.591 304.023H190.281V298.446H191.591ZM191.591 303.456C192.033 303.456 192.255 303.182 192.255 302.668V299.8C192.255 299.287 192.033 299.013 191.582 299.013H190.909V303.438L191.591 303.456Z" fill="#263238"/>
<path d="M195.423 300.916V301.473H194.06V303.456H195.733V304.023H193.441V298.446H195.733V299.013H194.06V300.916H195.423Z" fill="#263238"/>
<path d="M196.937 302.898L196.716 304.023H196.149L197.212 298.446H198.097L199.168 304.023H198.539L198.327 302.898H196.937ZM197.017 302.367H198.256L197.628 299.145L197.017 302.367Z" fill="#263238"/>
<path d="M200.974 298.446C201.859 298.446 202.239 298.968 202.239 299.836V302.642C202.239 303.527 201.841 304.023 200.974 304.023H199.663V298.446H200.974ZM200.974 303.456C201.425 303.456 201.637 303.182 201.637 302.668V299.8C201.637 299.287 201.425 299.013 200.965 299.013H200.301V303.438L200.974 303.456Z" fill="#263238"/>
<path d="M202.824 304.023V298.446H203.443V303.456H205.036V304.023H202.824Z" fill="#263238"/>
<path d="M206.169 298.446V304.023H205.55V298.446H206.169Z" fill="#263238"/>
<path d="M207.311 304.023H206.754V298.446H207.541L208.834 302.474V298.446H209.383V304.023H208.745L207.311 299.526V304.023Z" fill="#263238"/>
<path d="M212.012 300.916V301.473H210.648V303.456H212.366V304.023H210.064V298.446H212.366V299.013H210.693V300.916H212.012Z" fill="#263238"/>
<path d="M154.927 304.819H166.576" stroke="#263238" stroke-width="0.465314" stroke-linecap="round" stroke-linejoin="round"/>
<path d="M119.998 304.819H150.74" stroke="#263238" stroke-width="0.465314" stroke-linecap="round" stroke-linejoin="round"/>
<path d="M87.3703 304.819H115.342" stroke="#263238" stroke-width="0.465314" stroke-linecap="round" stroke-linejoin="round"/>
<path d="M137.701 318.07H146.597" stroke="#263238" stroke-width="0.465314" stroke-linecap="round" stroke-linejoin="round"/>
<path d="M114.873 318.07H130.248" stroke="#263238" stroke-width="0.465314" stroke-linecap="round" stroke-linejoin="round"/>
<path d="M103.702 318.07H110.217" stroke="#263238" stroke-width="0.465314" stroke-linecap="round" stroke-linejoin="round"/>
<path d="M87.3703 318.07H99.9752" stroke="#263238" stroke-width="0.465314" stroke-linecap="round" stroke-linejoin="round"/>
<path d="M270.026 315.592C270.027 316.141 269.92 316.685 269.71 317.192C269.501 317.7 269.193 318.161 268.805 318.549C268.417 318.937 267.956 319.245 267.448 319.454C266.941 319.664 266.397 319.771 265.848 319.77H221.988C221.438 319.771 220.894 319.664 220.386 319.454C219.878 319.245 219.416 318.937 219.028 318.549C218.639 318.161 218.33 317.7 218.12 317.193C217.909 316.685 217.801 316.141 217.801 315.592C217.803 314.483 218.245 313.42 219.03 312.637C219.815 311.854 220.879 311.414 221.988 311.414H265.848C266.397 311.414 266.94 311.522 267.447 311.732C267.954 311.942 268.414 312.25 268.802 312.638C269.19 313.026 269.498 313.486 269.708 313.993C269.918 314.5 270.026 315.043 270.026 315.592Z" fill="white" stroke="#263238" stroke-width="0.465314" stroke-linecap="round" stroke-linejoin="round"/>
<path d="M226.157 311.414V319.77H221.988C221.438 319.771 220.894 319.664 220.386 319.454C219.878 319.245 219.416 318.937 219.028 318.549C218.639 318.161 218.33 317.7 218.12 317.193C217.909 316.685 217.801 316.141 217.801 315.592C217.803 314.483 218.245 313.42 219.03 312.637C219.815 311.854 220.879 311.414 221.988 311.414H226.157Z" fill="#974FD0" stroke="#263238" stroke-width="0.465314" stroke-linecap="round" stroke-linejoin="round"/>
<path d="M209.489 319.77H192.184C191.076 319.77 190.013 319.33 189.229 318.546C188.446 317.763 188.006 316.7 188.006 315.592C188.006 315.043 188.114 314.5 188.324 313.993C188.534 313.486 188.841 313.026 189.229 312.638C189.617 312.25 190.078 311.942 190.585 311.732C191.092 311.522 191.635 311.414 192.184 311.414H209.489C210.038 311.413 210.583 311.52 211.09 311.729C211.598 311.939 212.06 312.246 212.449 312.634C212.838 313.023 213.146 313.484 213.357 313.991C213.567 314.498 213.676 315.042 213.676 315.592C213.676 316.141 213.567 316.685 213.357 317.193C213.146 317.7 212.838 318.161 212.449 318.549C212.06 318.937 211.598 319.245 211.09 319.454C210.583 319.664 210.038 319.771 209.489 319.77Z" fill="white" stroke="#263238" stroke-width="0.465314" stroke-linecap="round" stroke-linejoin="round"/>
<path d="M364.102 147.064H294.147C291.839 147.064 289.969 148.934 289.969 151.242V171.016C289.969 173.324 291.839 175.194 294.147 175.194H364.102C366.41 175.194 368.28 173.324 368.28 171.016V151.242C368.28 148.934 366.41 147.064 364.102 147.064Z" fill="#974FD0" stroke="#263238" stroke-width="0.465314" stroke-linecap="round" stroke-linejoin="round"/>
<path d="M304.981 165.652L304.477 168.308H303.131L305.628 155.243H307.734L310.231 168.281H308.779L308.274 165.626L304.981 165.652ZM305.167 164.404H308.071L306.601 156.88L305.167 164.404Z" fill="white"/>
<path d="M314.417 155.243C316.453 155.243 317.383 156.473 317.383 158.482V165.059C317.383 167.051 316.453 168.281 314.417 168.281H311.364V155.243H314.417ZM314.417 166.962C315.462 166.962 315.966 166.307 315.966 165.112V158.412C315.966 157.217 315.462 156.57 314.4 156.57H312.833V166.962H314.417Z" fill="white"/>
<path d="M321.8 155.243C323.827 155.243 324.756 156.473 324.756 158.482V165.059C324.756 167.051 323.827 168.281 321.8 168.281H318.746V155.243H321.8ZM321.8 166.962C322.835 166.962 323.34 166.307 323.34 165.112V158.412C323.34 157.217 322.835 156.57 321.773 156.57H320.215V166.962H321.8Z" fill="white"/>
<path d="M330.908 168.281V156.57H328.501V155.243H334.759V156.57H332.36V168.281H330.908Z" fill="white"/>
<path d="M336.529 165.652L336.024 168.308H334.688L337.175 155.243H339.282L341.778 168.281H340.318L339.822 165.626L336.529 165.652ZM336.715 164.404H339.618L338.149 156.88L336.715 164.404Z" fill="white"/>
<path d="M348.567 158.376V158.73H347.187V158.297C347.187 157.128 346.735 156.438 345.699 156.438C344.664 156.438 344.204 157.128 344.204 158.279C344.204 161.209 348.585 161.483 348.585 165.157C348.585 167.131 347.629 168.414 345.637 168.414C343.646 168.414 342.716 167.131 342.716 165.157V164.404H344.071V165.227C344.071 166.405 344.558 167.086 345.602 167.086C346.647 167.086 347.133 166.405 347.133 165.227C347.133 162.324 342.77 162.041 342.77 158.376C342.77 156.358 343.699 155.11 345.655 155.11C347.611 155.11 348.567 156.402 348.567 158.376Z" fill="white"/>
<path d="M352.064 162.625L351.303 163.909V168.281H349.851V155.243H351.338V161.536L354.799 155.243H356.277L352.976 161.182L356.384 168.264H354.879L352.064 162.625Z" fill="white"/>
<path d="M301.157 34.9653C301.157 34.9653 290.872 39.4973 285.516 40.9313C280.161 42.3653 274.408 44.6402 272.965 49.1634C271.522 53.6867 265.096 71.0892 264.679 74.8335C264.263 78.5778 270.876 85.2166 270.876 85.2166H356.49C356.49 85.2166 358.083 63.5564 354.578 56.1475C351.072 48.7386 340.415 42.4096 337.352 41.1792C334.29 39.9488 326.27 35.992 323.012 35.3813C319.755 34.7705 304.866 33.5224 301.157 34.9653Z" fill="white" stroke="#263238" stroke-width="0.465314" stroke-linecap="round" stroke-linejoin="round"/>
<path d="M272.779 64.9549C274.428 64.474 276.166 64.3836 277.856 64.6908C279.546 64.9981 281.142 65.6947 282.516 66.7253" fill="white"/>
<path d="M272.779 64.9549C274.428 64.474 276.166 64.3836 277.856 64.6908C279.546 64.9981 281.142 65.6947 282.516 66.7253" stroke="#263238" stroke-width="0.465314" stroke-linecap="round" stroke-linejoin="round"/>
<path d="M279.639 66.7253C281.61 66.8337 283.485 67.6148 284.95 68.9382L279.639 66.7253Z" fill="white"/>
<path d="M279.639 66.7253C281.61 66.8337 283.485 67.6148 284.95 68.9382" stroke="#263238" stroke-width="0.465314" stroke-linecap="round" stroke-linejoin="round"/>
<path d="M288.384 56.8467C289.19 58.2258 289.537 59.8252 289.376 61.4142C289.117 64.4595 288.385 67.4459 287.207 70.266" stroke="#263238" stroke-width="0.465314" stroke-linecap="round" stroke-linejoin="round"/>
<path d="M285.393 53.846C286.205 54.3351 286.931 54.9541 287.544 55.6783" stroke="#263238" stroke-width="0.465314" stroke-linecap="round" stroke-linejoin="round"/>
<path d="M290.642 56.5901C290.642 56.5901 292.297 61.5736 291.367 65.6011" stroke="#263238" stroke-width="0.465314" stroke-linecap="round" stroke-linejoin="round"/>
<path d="M335.113 59.6439C335.113 59.6439 333.059 66.8492 333.263 69.1153" stroke="#263238" stroke-width="0.465314" stroke-linecap="round" stroke-linejoin="round"/>
<path d="M302.379 52.6245L306.159 59.4226L309.372 69.8145L313.904 60.3697L318.25 52.8192L309.744 51.4915L302.379 52.6245Z" fill="#974FD0" stroke="#263238" stroke-width="0.465314" stroke-linecap="round" stroke-linejoin="round"/>
<path d="M306.159 59.4315L313.904 60.3697" stroke="#263238" stroke-width="0.465314" stroke-linecap="round" stroke-linejoin="round"/>
<path d="M301.981 40.5241C301.01 41.8407 300.246 43.2972 299.715 44.8438C298.891 47.3134 297.457 55.7491 297.457 55.7491C297.457 55.7491 305.477 55.3419 307.54 55.3419C309.602 55.3419 312.851 55.5455 313.506 55.5455C314.161 55.5455 323.384 61.1044 323.384 61.1044C323.384 61.1044 325.031 51.6331 323.181 46.2866C321.331 40.9402 308.77 34.5581 301.981 40.5241Z" fill="white" stroke="#263238" stroke-width="0.465314" stroke-linecap="round" stroke-linejoin="round"/>
<path d="M306.3 52.1996L309.558 59.0509L316.179 51.58C316.179 51.58 310.009 53.4477 306.3 52.1996Z" fill="white" stroke="#263238" stroke-width="0.465314" stroke-linecap="round" stroke-linejoin="round"/>
<path d="M333.9 129.458L330.722 135.326C330.722 135.326 326.792 136.149 326.385 136.973C325.377 138.852 324.191 140.63 322.844 142.284C321.817 143.311 319.764 144.753 321.614 145.577C323.464 146.4 326.757 142.7 326.757 142.7L328.607 141.664C328.739 143.307 328.537 144.96 328.014 146.524C326.801 150.002 325.402 154.234 325.579 154.676C326.465 156.889 327.925 155.331 327.925 155.331L330.687 148.878L331.174 148.568C331.174 148.568 330.616 155.942 330.616 155.969C330.51 157.323 331.705 158.907 332.749 157.518L335.219 149.701V156.73C335.212 156.986 335.263 157.24 335.369 157.473C335.474 157.707 335.631 157.913 335.828 158.076C336.025 158.24 336.257 158.357 336.505 158.418C336.754 158.479 337.013 158.483 337.264 158.429L337.485 158.341C338.308 157.934 338.591 149.347 338.591 149.347L340.309 155.544C340.349 155.706 340.422 155.857 340.524 155.989C340.626 156.121 340.755 156.23 340.901 156.309C341.048 156.388 341.21 156.436 341.376 156.449C341.542 156.462 341.709 156.44 341.867 156.385C341.946 156.361 342.018 156.318 342.078 156.262C342.138 156.205 342.184 156.135 342.212 156.057C342.424 155.446 341.805 145.568 341.805 145.568L341.389 135.273L342.008 131.777L333.9 129.458Z" fill="white" stroke="#263238" stroke-width="0.465314" stroke-linecap="round" stroke-linejoin="round"/>
<path d="M337.795 60.5291C337.795 60.5291 334.502 67.5308 334.909 70.0004C335.316 72.47 344.912 96.0776 344.912 96.0776L332.988 130.431L342.46 132.697C342.46 132.697 358.632 108.656 360.349 103.487C361.291 100.565 361.708 97.4986 361.579 94.4312C361.579 93.192 357.756 65.0611 355.489 60.1219C354.172 57.2115 352.439 54.5073 350.347 52.0934" fill="white"/>
<path d="M337.795 60.5291C337.795 60.5291 334.502 67.5308 334.909 70.0004C335.316 72.47 344.912 96.0776 344.912 96.0776L332.988 130.431L342.46 132.697C342.46 132.697 358.632 108.656 360.349 103.487C361.291 100.565 361.708 97.4986 361.579 94.4312C361.579 93.192 357.756 65.0611 355.489 60.1219C354.172 57.2115 352.439 54.5073 350.347 52.0934" stroke="#263238" stroke-width="0.465314" stroke-linecap="round" stroke-linejoin="round"/>
<path d="M346.354 95.2102C346.354 95.2102 350.054 90.0585 352.321 86.7656" stroke="#263238" stroke-width="0.465314" stroke-linecap="round" stroke-linejoin="round"/>
<path d="M351.701 84.9156L347.178 90.6781" stroke="#263238" stroke-width="0.465314" stroke-linecap="round" stroke-linejoin="round"/>
<path d="M333.812 127.094L343.894 129.564" stroke="#263238" stroke-width="0.465314" stroke-linecap="round" stroke-linejoin="round"/>
<path d="M267.893 68.9471C266.927 69.7872 266.073 70.7481 265.352 71.8062C263.493 74.4617 264.529 80.2419 265.759 82.0919C266.99 83.9419 271.956 85.1812 271.956 85.1812H311.912L312.718 78.4273H311.257C311.257 78.4273 304.061 76.1612 298.909 74.7184C293.757 73.2756 283.64 69.0002 280.595 68.3452C278.268 67.8463 275.872 67.7535 273.513 68.0708" fill="white"/>
<path d="M267.893 68.9471C266.927 69.7872 266.073 70.7481 265.352 71.8062C263.493 74.4617 264.529 80.2419 265.759 82.0919C266.99 83.9419 271.956 85.1812 271.956 85.1812H311.912L312.718 78.4273H311.257C311.257 78.4273 304.061 76.1612 298.909 74.7184C293.757 73.2756 283.64 69.0002 280.595 68.3452C278.268 67.8463 275.872 67.7535 273.513 68.0708" stroke="#263238" stroke-width="0.465314" stroke-linecap="round" stroke-linejoin="round"/>
<path d="M318.64 85.1812L318.436 84.9245C318.436 84.9245 322.588 84.5439 323.154 84.358C323.901 84.1854 324.658 84.0583 325.42 83.9773L331.422 85.1812H337.379L336.759 84.1544L331.448 80.8615L326.854 78.5689C322.083 76.179 316.356 79.1266 311.275 78.3919L312.24 78.5158L311.434 85.1812H318.64Z" fill="white" stroke="#263238" stroke-width="0.465314" stroke-linecap="round" stroke-linejoin="round"/>
<path d="M326.934 80.5783L336.379 84.7386" stroke="#263238" stroke-width="0.465314" stroke-linecap="round" stroke-linejoin="round"/>
<path d="M308.611 78.1263L308.363 84.9776" stroke="#263238" stroke-width="0.465314" stroke-linecap="round" stroke-linejoin="round"/>
<path d="M300.75 28.7956C299.099 26.4961 298.101 23.7919 297.865 20.9706C297.661 16.651 299.715 15.8278 299.715 15.8278C299.715 15.8278 296.634 10.8885 303.424 8.00286C310.213 5.11719 320.507 3.47962 326.27 6.56888C332.032 9.65813 334.086 16.8546 333.882 21.7939C333.679 26.7331 330.793 32.4956 330.793 32.4956L326.27 38.0545C326.27 38.0545 323.384 39.0813 322.729 37.8509C322.074 36.6205 318.649 32.9116 316.816 32.9116C314.984 32.9116 310.23 32.9116 307.761 31.876C305.291 30.8403 300.75 28.7956 300.75 28.7956Z" fill="#263238" stroke="#263238" stroke-width="0.465314" stroke-linecap="round" stroke-linejoin="round"/>
<path d="M300.334 22.6171C300.334 22.6171 300.131 35.1688 300.131 37.8509C300.131 40.533 300.131 43.162 301.361 45.8706C302.591 48.5792 303.627 55.7491 309.186 56.1651C314.745 56.5812 322.765 50.8541 324.234 47.7294C325.703 44.6048 326.473 39.2849 326.473 39.2849C326.473 39.2849 331.413 35.992 332.236 32.0884C333.059 28.1848 331.413 26.3259 330.386 28.176C329.359 30.026 327.916 34.7616 327.297 35.1688C326.677 35.576 325.854 32.6992 325.854 32.6992C325.854 32.6992 322.765 33.9384 322.357 32.6992C321.95 31.46 324.004 25.5027 324.004 25.5027C324.004 25.5027 317.215 27.3527 315.772 27.3527C314.228 27.1754 312.709 26.8311 311.24 26.3259L317.215 30.026C314.607 31.1075 311.722 31.3247 308.982 30.6456C304.866 29.4063 301.777 22.6171 301.777 22.6171H300.334Z" fill="white" stroke="#263238" stroke-width="0.465314" stroke-linecap="round" stroke-linejoin="round"/>
<path d="M306.513 35.7885V38.2581C306.513 38.2581 303.857 45.2598 304.247 46.4902C304.636 47.7206 308.363 47.1098 309.186 46.6938" fill="white"/>
<path d="M306.513 35.7885V38.2581C306.513 38.2581 303.857 45.2598 304.247 46.4902C304.636 47.7206 308.363 47.1098 309.186 46.6938" stroke="#263238" stroke-width="0.465314" stroke-linecap="round" stroke-linejoin="round"/>
<path d="M306.097 48.5527C307.31 49.2582 308.682 49.6467 310.085 49.6822C311.488 49.7178 312.878 49.3994 314.125 48.7563" fill="white"/>
<path d="M306.097 48.5527C307.31 49.2582 308.682 49.6467 310.085 49.6822C311.488 49.7178 312.878 49.3994 314.125 48.7563" stroke="#263238" stroke-width="0.465314" stroke-linecap="round" stroke-linejoin="round"/>
<path d="M312.063 39.2849C313.095 40.0176 314.287 40.4937 315.54 40.6738C316.793 40.8539 318.071 40.7328 319.268 40.3206" fill="white"/>
<path d="M312.063 39.2849C313.095 40.0176 314.287 40.4937 315.54 40.6738C316.793 40.8539 318.071 40.7328 319.268 40.3206" stroke="#263238" stroke-width="0.465314" stroke-linecap="round" stroke-linejoin="round"/>
<path d="M312.275 35.5849C312.275 35.5849 316.816 33.9739 319.684 37.0277L312.275 35.5849Z" fill="white"/>
<path d="M312.275 35.5849C312.275 35.5849 316.816 33.9739 319.684 37.0277" stroke="#263238" stroke-width="0.465314" stroke-linecap="round" stroke-linejoin="round"/>
<path d="M301.768 35.9921C301.768 35.9921 302.591 37.8509 306.504 38.2581L301.768 35.9921Z" fill="white"/>
<path d="M301.768 35.9921C301.768 35.9921 302.591 37.8509 306.504 38.2581" stroke="#263238" stroke-width="0.465314" stroke-linecap="round" stroke-linejoin="round"/>
<path d="M305.69 33.9739C305.69 33.9739 304.247 31.5042 302.149 32.3274L305.69 33.9739Z" fill="white"/>
<path d="M305.69 33.9739C305.69 33.9739 304.247 31.5042 302.149 32.3274" stroke="#263238" stroke-width="0.465314" stroke-linecap="round" stroke-linejoin="round"/>
<path d="M309.372 69.8146L303.512 122.137L311.071 132.715L318.055 122.137L309.372 69.8146Z" fill="#974FD0" stroke="#263238" stroke-width="0.465314" stroke-linecap="round" stroke-linejoin="round"/>
<path d="M82.3248 197.271V205.883C82.3248 205.883 170.47 202.281 277.435 200.493L82.3248 197.271Z" fill="#263238" stroke="#263238" stroke-width="0.465314" stroke-linecap="round" stroke-linejoin="round"/>
<path d="M277.435 147.064H77.4653V200.493H277.435V147.064Z" fill="white" stroke="#263238" stroke-width="0.465314" stroke-linecap="round" stroke-linejoin="round"/>
<path d="M231.556 160.837C232.441 160.837 232.804 161.35 232.804 162.2V162.864C232.804 163.749 232.388 164.209 231.512 164.209H230.954V166.414H230.335V160.837H231.556ZM231.512 163.652C231.972 163.652 232.194 163.439 232.194 162.908V162.165C232.194 161.66 232.008 161.403 231.556 161.403H230.954V163.652H231.512Z" fill="#263238"/>
<path d="M234.495 160.837C235.38 160.837 235.743 161.28 235.743 162.112V162.563C235.743 163.174 235.531 163.563 235.053 163.714C235.557 163.864 235.752 164.28 235.752 164.873V165.759C235.735 165.988 235.772 166.218 235.858 166.431H235.23C235.145 166.215 235.111 165.981 235.132 165.75V164.864C235.132 164.236 234.831 164.041 234.318 164.041H233.875V166.422H233.256V160.846L234.495 160.837ZM234.345 163.492C234.831 163.492 235.132 163.333 235.132 162.722V162.191C235.132 161.687 234.946 161.43 234.486 161.43H233.875V163.492H234.345Z" fill="#263238"/>
<path d="M236.38 162.182C236.38 161.297 236.805 160.775 237.655 160.775C238.505 160.775 238.939 161.333 238.939 162.182V165.068C238.953 165.245 238.931 165.423 238.874 165.591C238.816 165.759 238.724 165.913 238.604 166.044C238.484 166.174 238.338 166.279 238.175 166.35C238.013 166.421 237.837 166.458 237.66 166.458C237.482 166.458 237.306 166.421 237.144 166.35C236.981 166.279 236.835 166.174 236.715 166.044C236.595 165.913 236.503 165.759 236.445 165.591C236.388 165.423 236.366 165.245 236.38 165.068V162.182ZM237 165.095C237 165.608 237.213 165.9 237.655 165.9C238.098 165.9 238.319 165.608 238.319 165.095V162.147C238.319 161.651 238.115 161.341 237.655 161.341C237.195 161.341 237 161.651 237 162.147V165.095Z" fill="#263238"/>
<path d="M241.992 162.182V162.66H241.399V162.147C241.399 161.651 241.205 161.341 240.744 161.341C240.284 161.341 240.098 161.651 240.098 162.147V165.095C240.098 165.599 240.302 165.9 240.744 165.9C241.187 165.9 241.399 165.599 241.399 165.095V163.979H240.824V163.422H241.992V165.068C241.992 165.953 241.594 166.467 240.736 166.467C239.877 166.467 239.479 165.909 239.479 165.068V162.182C239.479 161.297 239.877 160.775 240.736 160.775C241.594 160.775 241.992 161.333 241.992 162.182Z" fill="#263238"/>
<path d="M243.825 160.837C244.71 160.837 245.064 161.28 245.064 162.112V162.563C245.064 163.174 244.852 163.563 244.374 163.714C244.887 163.864 245.073 164.28 245.073 164.873V165.759C245.055 165.989 245.094 166.22 245.188 166.431H244.56C244.471 166.216 244.434 165.982 244.453 165.75V164.864C244.453 164.236 244.161 164.041 243.639 164.041H243.205V166.422H242.577V160.846L243.825 160.837ZM243.665 163.492C244.161 163.492 244.453 163.333 244.453 162.722V162.191C244.453 161.687 244.267 161.43 243.807 161.43H243.205V163.492H243.665Z" fill="#263238"/>
<path d="M247.702 163.307V163.864H246.339V165.865H248.012V166.431H245.719V160.855H248.012V161.439H246.339V163.342L247.702 163.307Z" fill="#263238"/>
<path d="M251.004 162.174V162.324H250.428V162.138C250.428 161.642 250.242 161.341 249.791 161.341C249.339 161.341 249.154 161.642 249.154 162.138C249.154 163.386 251.03 163.501 251.03 165.077C251.03 165.918 250.623 166.467 249.764 166.467C248.906 166.467 248.516 165.918 248.516 165.077V164.758H249.1V165.103C249.1 165.608 249.304 165.9 249.755 165.9C250.207 165.9 250.402 165.608 250.402 165.103C250.402 163.864 248.543 163.74 248.543 162.174C248.543 161.288 248.941 160.775 249.773 160.775C250.605 160.775 251.004 161.333 251.004 162.174Z" fill="#263238"/>
<path d="M253.969 162.174V162.324H253.376V162.138C253.376 161.642 253.181 161.341 252.738 161.341C252.296 161.341 252.101 161.642 252.101 162.138C252.101 163.386 253.969 163.501 253.969 165.077C253.969 165.918 253.571 166.467 252.712 166.467C251.853 166.467 251.464 165.918 251.464 165.077V164.758H252.048V165.103C252.048 165.608 252.252 165.9 252.694 165.9C253.137 165.9 253.349 165.608 253.349 165.103C253.349 163.864 251.49 163.74 251.49 162.174C251.49 161.288 251.889 160.775 252.721 160.775C253.553 160.775 253.969 161.333 253.969 162.174Z" fill="#263238"/>
<path d="M191.591 160.837C192.476 160.837 192.856 161.359 192.856 162.218V165.033C192.856 165.918 192.458 166.414 191.591 166.414H190.281V160.837H191.591ZM191.591 165.847C192.033 165.847 192.255 165.573 192.255 165.059V162.191C192.255 161.678 192.033 161.403 191.582 161.403H190.909V165.829L191.591 165.847Z" fill="#263238"/>
<path d="M195.423 163.307V163.864H194.06V165.865H195.733V166.431H193.441V160.855H195.733V161.439H194.06V163.342L195.423 163.307Z" fill="#263238"/>
<path d="M196.937 165.289L196.716 166.414H196.149L197.212 160.837H198.097L199.168 166.414H198.539L198.327 165.289H196.937ZM197.017 164.758H198.256L197.628 161.536L197.017 164.758Z" fill="#263238"/>
<path d="M200.974 160.837C201.859 160.837 202.239 161.359 202.239 162.218V165.033C202.239 165.918 201.841 166.414 200.974 166.414H199.663V160.837H200.974ZM200.974 165.847C201.425 165.847 201.637 165.573 201.637 165.059V162.191C201.637 161.678 201.425 161.403 200.965 161.403H200.301V165.829L200.974 165.847Z" fill="#263238"/>
<path d="M202.824 166.414V160.837H203.443V165.865H205.036V166.431L202.824 166.414Z" fill="#263238"/>
<path d="M206.169 160.837V166.414H205.55V160.837H206.169Z" fill="#263238"/>
<path d="M207.311 166.414H206.754V160.837H207.542L208.834 164.864V160.837H209.383V166.414H208.745L207.311 161.899V166.414Z" fill="#263238"/>
<path d="M212.012 163.307V163.864H210.648V165.865H212.366V166.431H210.064V160.855H212.366V161.439H210.693V163.342L212.012 163.307Z" fill="#263238"/>
<path d="M154.927 167.21H166.576" stroke="#263238" stroke-width="0.465314" stroke-linecap="round" stroke-linejoin="round"/>
<path d="M119.998 167.21H150.74" stroke="#263238" stroke-width="0.465314" stroke-linecap="round" stroke-linejoin="round"/>
<path d="M87.3703 167.21H115.342" stroke="#263238" stroke-width="0.465314" stroke-linecap="round" stroke-linejoin="round"/>
<path d="M137.701 180.461H146.597" stroke="#263238" stroke-width="0.465314" stroke-linecap="round" stroke-linejoin="round"/>
<path d="M114.873 180.461H130.248" stroke="#263238" stroke-width="0.465314" stroke-linecap="round" stroke-linejoin="round"/>
<path d="M103.702 180.461H110.217" stroke="#263238" stroke-width="0.465314" stroke-linecap="round" stroke-linejoin="round"/>
<path d="M87.3703 180.461H99.9752" stroke="#263238" stroke-width="0.465314" stroke-linecap="round" stroke-linejoin="round"/>
<path d="M270.026 177.983C270.027 178.532 269.92 179.076 269.71 179.583C269.501 180.09 269.193 180.551 268.805 180.94C268.417 181.328 267.956 181.636 267.448 181.845C266.941 182.055 266.397 182.162 265.848 182.161H221.988C221.438 182.162 220.894 182.055 220.386 181.845C219.878 181.636 219.416 181.328 219.028 180.94C218.639 180.552 218.33 180.091 218.12 179.584C217.909 179.076 217.801 178.532 217.801 177.983C217.805 176.874 218.248 175.812 219.032 175.027C219.816 174.243 220.879 173.801 221.988 173.796H265.848C266.397 173.796 266.941 173.904 267.449 174.115C267.956 174.325 268.417 174.634 268.805 175.023C269.193 175.412 269.501 175.873 269.71 176.381C269.92 176.889 270.027 177.433 270.026 177.983Z" fill="white" stroke="#263238" stroke-width="0.465314" stroke-linecap="round" stroke-linejoin="round"/>
<path d="M209.489 182.161H192.184C191.076 182.161 190.013 181.721 189.229 180.937C188.446 180.154 188.006 179.091 188.006 177.983C188.013 176.879 188.456 175.823 189.239 175.046C190.022 174.268 191.08 173.831 192.184 173.831H209.489C210.039 173.831 210.583 173.94 211.091 174.15C211.599 174.36 212.061 174.669 212.449 175.058C212.838 175.446 213.147 175.908 213.357 176.416C213.567 176.924 213.676 177.468 213.676 178.018C213.666 179.122 213.221 180.177 212.436 180.953C211.652 181.729 210.592 182.163 209.489 182.161Z" fill="white" stroke="#263238" stroke-width="0.465314" stroke-linecap="round" stroke-linejoin="round"/>
<path d="M95.0979 209.238C95.0979 209.238 98.0544 201.546 98.6386 200.758C99.2228 199.97 100.214 197.997 101.993 197.997C103.773 197.997 106.924 198.191 108.305 197.598C109.686 197.005 111.456 197.005 111.066 198.191C110.677 199.377 108.305 199.767 108.305 199.767L118.555 200.564C118.555 200.564 115.599 203.316 114.218 203.91C112.803 204.411 111.353 204.808 109.88 205.096C108.655 205.921 107.328 206.584 105.932 207.07C104.633 207.349 103.317 207.547 101.993 207.663L99.8247 211.602L95.0979 209.238Z" fill="white" stroke="#263238" stroke-width="0.465314" stroke-linecap="round" stroke-linejoin="round"/>
<path d="M108.314 199.758L103.773 200.944" stroke="#263238" stroke-width="0.465314" stroke-linecap="round" stroke-linejoin="round"/>
<path d="M70.6405 175.106L67.2857 180.833L69.2597 185.365L74.7832 181.223L77.5449 179.249V167.414L70.6405 175.106Z" fill="white" stroke="#263238" stroke-width="0.465314" stroke-linecap="round" stroke-linejoin="round"/>
<path d="M69.8527 178.257C69.8527 178.257 71.4283 170.167 72.2161 169.184C73.004 168.202 76.164 165.829 77.1466 165.643C78.1291 165.458 79.5188 166.033 78.731 167.219C77.7463 168.346 76.6185 169.34 75.3762 170.176C75.3762 170.176 76.7571 174.123 75.7657 176.292C75.0833 177.658 73.978 178.766 72.6145 179.452" fill="white"/>
<path d="M69.8527 178.257C69.8527 178.257 71.4283 170.167 72.2161 169.184C73.004 168.202 76.164 165.829 77.1466 165.643C78.1291 165.458 79.5188 166.033 78.731 167.219C77.7463 168.346 76.6185 169.34 75.3762 170.176C75.3762 170.176 76.7571 174.123 75.7657 176.292C75.0833 177.658 73.978 178.766 72.6145 179.452" stroke="#263238" stroke-width="0.465314" stroke-linecap="round" stroke-linejoin="round"/>
<path d="M67.4893 179.249L70.8353 187.729L53.6806 200.749L49.9363 187.339L67.4893 179.249Z" fill="#974FD0" stroke="#263238" stroke-width="0.465314" stroke-linecap="round" stroke-linejoin="round"/>
<path d="M59.6732 321.505L60.3371 329.914C60.3371 329.914 55.9112 339.208 56.3538 347.396C56.7964 355.584 57.6816 379.262 57.6816 380.59C57.6816 381.918 55.4687 383.467 57.0177 388.999C57.4515 390.54 61.2223 389.442 64.9843 391.876C68.7463 394.31 73.3934 395.859 76.2702 395.859C79.1471 395.859 80.6961 395.859 80.6961 394.532C80.6961 393.204 76.4915 391.434 74.7212 389.663C71.941 386.503 69.3545 383.178 66.9759 379.705C66.5333 378.82 68.525 365.764 69.8527 360.674C71.1805 355.584 74.9425 343.413 76.4915 334.782C78.0406 326.152 78.7045 319.071 78.7045 319.071L59.6732 321.505Z" fill="white" stroke="#263238" stroke-width="0.465314" stroke-linecap="round" stroke-linejoin="round"/>
<path d="M57.0177 388.999L57.4603 394.974H60.5584L61.8862 390.106C61.8862 390.106 58.1242 388.778 57.0177 388.999Z" fill="#263238" stroke="#263238" stroke-width="0.465314" stroke-linecap="round" stroke-linejoin="round"/>
<path d="M76.2703 395.859C79.1294 395.576 80.6961 395.859 80.6961 394.532C80.6961 393.204 76.4916 391.434 74.7212 389.663C72.3146 386.933 70.0485 384.082 67.9319 381.121C67.0191 381.835 65.9176 382.265 64.763 382.361C61.4436 382.582 57.6816 380.59 57.6816 380.59C57.6816 381.918 55.4687 383.467 57.0177 388.999C57.4515 390.54 61.3462 390.265 64.3824 393.912C67.2503 397.355 75.8365 395.904 76.2703 395.859Z" fill="#263238" stroke="#263238" stroke-width="0.465314" stroke-linecap="round" stroke-linejoin="round"/>
<path d="M33.7819 315.087L34.2245 327.48C34.2245 327.48 28.4709 335.225 27.3644 342.749C26.2579 350.273 22.496 379.705 22.496 382.582C22.496 385.459 20.7256 394.753 21.6108 395.417C22.496 396.081 32.6755 395.417 32.6755 395.417C33.0347 394.426 33.1854 393.371 33.118 392.319C33.118 390.106 31.3477 382.803 31.7903 381.033C32.2329 379.262 33.7819 373.73 33.7819 373.73C33.7819 373.73 40.642 355.805 43.5188 350.273C46.3956 344.741 48.8299 336.774 50.3789 331.906C51.928 327.037 53.2557 320.177 53.2557 320.177L33.7819 315.087Z" fill="white" stroke="#263238" stroke-width="0.465314" stroke-linecap="round" stroke-linejoin="round"/>
<path d="M31.7372 381.369C28.6656 377.049 23.6555 379.687 22.673 380.263C22.5579 381.405 22.496 382.219 22.496 382.582C22.496 385.459 20.7256 394.753 21.6108 395.417C22.496 396.081 32.6755 395.417 32.6755 395.417C33.0347 394.426 33.1854 393.371 33.118 392.319C33.118 390.23 31.5336 383.617 31.7372 381.369Z" fill="#263238" stroke="#263238" stroke-width="0.465314" stroke-linecap="round" stroke-linejoin="round"/>
<path d="M32.6754 395.417C32.2328 394.089 29.1347 388.778 29.1347 388.778L23.3811 388.999C21.3895 391.212 21.6108 395.417 21.6108 395.417C22.4959 396.081 32.6754 395.417 32.6754 395.417Z" fill="#8C8C8C" stroke="#263238" stroke-width="0.465314" stroke-linecap="round" stroke-linejoin="round"/>
<path d="M29.1347 388.778C29.1347 388.778 27.1431 387.008 25.5941 387.672C24.7854 387.983 24.0368 388.433 23.3811 388.999L23.6024 395.638H27.5857L29.1347 388.778Z" fill="#263238" stroke="#263238" stroke-width="0.465314" stroke-linecap="round" stroke-linejoin="round"/>
<path d="M28.9135 271.05C27.7299 274.32 27.0581 277.754 26.9218 281.229C26.7005 286.983 28.2496 315.309 28.2496 315.309C28.2496 315.309 39.3142 322.833 57.9029 323.496C76.4916 324.16 85.122 319.071 85.122 319.071C85.122 319.071 84.6794 284.991 82.4665 276.804C80.2535 268.616 76.2703 265.296 76.2703 265.296C76.2703 265.296 67.4185 267.952 53.9196 267.731C46.2481 267.673 38.6056 266.783 31.1264 265.075L28.9135 271.05Z" fill="#263238" stroke="#263238" stroke-width="0.465314" stroke-linecap="round" stroke-linejoin="round"/>
<path d="M34.7468 202.918C34.7468 202.918 29.2233 213.168 28.4355 220.666C27.6477 228.163 34.9415 251.036 34.9415 251.824C34.9415 252.612 27.2582 272.333 27.2582 272.333C33.2961 274.923 39.5524 276.969 45.9531 278.45C55.8139 280.619 65.8695 279.238 67.8434 278.645L70.4104 270.961L71.393 277.467C71.393 277.467 71.393 277.662 74.553 276.874C77.7131 276.087 81.6344 272.732 81.6344 272.732C81.6344 272.732 76.5093 260.702 73.9423 257.347C71.3753 253.993 68.224 246.309 68.224 246.309L69.4013 236.448C69.4013 236.448 78.2531 243.742 79.0674 243.937C79.8818 244.132 92.0883 229.774 94.6465 225.596C97.2046 221.418 101.356 210.805 101.356 210.805L95.5228 207.849L93.1594 210.212L79.1559 225.402C79.1559 225.402 70.676 215.735 66.5334 214.16C62.3907 212.584 54.5038 210.212 54.5038 210.212L38.5265 206.468L39.7126 203.113C39.7126 203.113 38.8717 200.749 34.7468 202.918Z" fill="#974FD0" stroke="#263238" stroke-width="0.465314" stroke-linecap="round" stroke-linejoin="round"/>
<path d="M69.4633 236.448L60.5584 231.217L68.6666 241.016L69.4633 236.448Z" fill="#263238" stroke="#263238" stroke-width="0.465314" stroke-linecap="round" stroke-linejoin="round"/>
<path d="M50.7596 248.655C51.5886 249.629 52.4976 250.532 53.477 251.355" stroke="#263238" stroke-width="0.465314" stroke-linecap="round" stroke-linejoin="round"/>
<path d="M39.9073 229.385C39.9073 229.385 43.7136 239.193 48.9538 246.362" stroke="#263238" stroke-width="0.465314" stroke-linecap="round" stroke-linejoin="round"/>
<path d="M44.1119 244.247C46.2391 247.73 48.7284 250.979 51.5385 253.94" stroke="#263238" stroke-width="0.465314" stroke-linecap="round" stroke-linejoin="round"/>
<path d="M60.3902 171.955C61.1735 173.522 61.7678 175.177 62.1606 176.885C62.9484 180.036 65.7013 181.621 66.7015 181.417C67.7018 181.214 67.6841 183.586 67.091 184.772C66.6699 185.565 66.1395 186.295 65.5154 186.941C65.3944 189.714 65.1314 192.479 64.7276 195.226C64.1345 198.767 63.9398 201.537 62.5589 201.537H55.4775C55.4775 201.537 54.8845 204.688 54.6809 207.255C54.4773 209.822 54.4861 210.212 54.4861 210.212L38.5087 206.468L40.2791 200.944C40.2791 200.944 30.2235 196.412 35.1539 188.127C40.0844 179.842 51.7067 169.405 60.3902 171.955Z" fill="white" stroke="#263238" stroke-width="0.465314" stroke-linecap="round" stroke-linejoin="round"/>
<path d="M55.4598 201.537L52.1847 201.272L54.7694 205.795L55.4598 201.537Z" fill="#263238" stroke="#263238" stroke-width="0.465314" stroke-linecap="round" stroke-linejoin="round"/>
<path d="M65.1171 191.278C64.5309 191.641 63.8624 191.851 63.1737 191.886C62.485 191.922 61.7985 191.783 61.1781 191.482" stroke="#263238" stroke-width="0.465314" stroke-linecap="round" stroke-linejoin="round"/>
<path d="M59.0094 179.054C59.0094 179.054 59.3988 175.31 61.3728 175.513" stroke="#263238" stroke-width="0.465314" stroke-linecap="round" stroke-linejoin="round"/>
<path d="M62.1252 180.621C62.4615 181.656 62.435 182.586 62.0721 182.71C61.7091 182.834 61.1869 182.072 60.8151 181.037C60.4433 180.001 60.5053 179.072 60.8682 178.948C61.2312 178.824 61.7977 179.576 62.1252 180.621Z" fill="#263238"/>
<path d="M60.3902 166.033L60.461 166.121C62.5501 168.839 62.2314 171.866 60.585 174.716C57.301 180.514 47.3074 185.905 47.3074 190.694C47.3074 195.483 52.3529 195.235 52.3529 195.235C52.3529 195.235 54.371 199.528 49.3256 203.308C44.2801 207.087 33.9235 208.096 27.3644 201.272C25.5609 199.332 24.2468 196.989 23.5316 194.438C21.54 187.799 21.2567 180.417 24.1866 174.398C26.6474 169.352 29.4977 165.263 34.6228 162.722C38.6592 160.74 45.0325 160.244 49.538 160.509C51.7382 160.593 53.8993 161.117 55.8936 162.05C57.6449 163.062 59.1743 164.416 60.3902 166.033Z" fill="#263238" stroke="#263238" stroke-width="0.465314" stroke-linecap="round" stroke-linejoin="round"/>
<path d="M46.5992 199.307C47.573 199.147 48.5261 198.88 49.4407 198.51" stroke="#757575" stroke-width="0.465314" stroke-linecap="round" stroke-linejoin="round"/>
<path d="M55.212 177.177C53.8389 179.171 52.1213 180.903 50.1399 182.294C43.1825 187.162 35.5346 192.261 39.0133 196.89C39.6121 197.683 40.3827 198.33 41.2673 198.782C42.1519 199.234 43.1275 199.48 44.1207 199.501" stroke="#757575" stroke-width="0.465314" stroke-linecap="round" stroke-linejoin="round"/>
<path d="M58.2481 170.238C57.9686 171.61 57.5196 172.942 56.9115 174.203" stroke="#757575" stroke-width="0.465314" stroke-linecap="round" stroke-linejoin="round"/>
<path d="M41.66 183.878C40.5269 185.445 39.1018 187.286 37.3934 189.242C32.525 194.81 33.2154 206.158 44.1119 205.237" stroke="#757575" stroke-width="0.465314" stroke-linecap="round" stroke-linejoin="round"/>
<path d="M44.8023 179.045C44.8023 179.045 44.2889 180.028 43.2975 181.515" stroke="#757575" stroke-width="0.465314" stroke-linecap="round" stroke-linejoin="round"/>
<path d="M329.678 289.311C331.997 290.32 337.644 290.196 337.644 290.196C337.644 290.196 336.423 286.479 336.317 286.257C335.068 283.655 331.138 279.362 327.943 279.795C327.413 279.881 326.906 280.077 326.457 280.371C326.008 280.665 325.626 281.051 325.336 281.503C325.046 281.955 324.855 282.463 324.775 282.994C324.694 283.525 324.727 284.067 324.871 284.584C325.429 286.797 327.704 288.444 329.678 289.311Z" fill="#263238"/>
<path d="M403.935 270.014C400.722 269.669 396.907 274.068 395.738 276.706C395.632 276.928 394.455 280.672 394.517 280.672H394.588C393.977 281.362 393.331 282.106 392.649 282.938C391.392 284.478 389.993 286.24 388.586 288.249C387.052 290.401 385.645 292.641 384.373 294.958C382.934 297.545 381.732 300.256 380.779 303.058C380.779 303.058 380.779 303.129 380.779 303.155C380.779 302.208 380.779 299.561 380.735 299.367C380.363 296.508 377.964 291.197 374.786 290.603C374.254 290.52 373.711 290.549 373.191 290.689C372.671 290.829 372.187 291.077 371.769 291.417C371.352 291.757 371.01 292.181 370.768 292.661C370.525 293.142 370.386 293.668 370.36 294.206C370.174 296.472 371.821 298.747 373.432 300.181C375.202 301.801 380.274 303.368 380.673 303.492C379.765 306.364 379.056 309.295 378.548 312.264C378.238 313.99 377.982 315.742 377.743 317.504C377.743 316.681 377.743 315.955 377.743 315.849C377.371 312.989 374.972 307.678 371.794 307.094C371.263 307.009 370.72 307.037 370.2 307.176C369.68 307.315 369.195 307.562 368.778 307.901C368.36 308.24 368.018 308.664 367.776 309.144C367.533 309.624 367.394 310.151 367.368 310.688C367.183 312.963 368.829 315.238 370.44 316.672C372.051 318.106 376.326 319.549 377.459 319.912C377.38 320.584 377.282 321.257 377.203 321.93C376.822 325.178 376.45 328.409 375.981 331.569C375.822 332.685 375.618 333.782 375.424 334.871C375.424 334.145 375.424 333.534 375.424 333.437C375.052 330.578 372.653 325.276 369.475 324.683C368.944 324.599 368.401 324.628 367.882 324.767C367.363 324.907 366.879 325.154 366.461 325.493C366.044 325.832 365.702 326.255 365.459 326.735C365.216 327.214 365.076 327.739 365.049 328.276C364.863 330.551 366.51 332.826 368.121 334.26C369.732 335.694 373.591 336.995 374.937 337.438C374.707 338.544 374.468 339.66 374.193 340.731C373.981 341.457 373.83 342.165 373.582 342.882C373.335 343.599 373.131 344.307 372.901 345.006C372.414 346.343 371.927 347.724 371.423 349.007C371.077 349.892 370.723 350.778 370.378 351.663C370.555 350.556 370.856 348.379 370.856 348.193C370.82 345.657 370.134 343.174 368.864 340.979C368.875 340.683 368.858 340.386 368.811 340.093C368.745 339.561 368.567 339.048 368.289 338.589C368.012 338.13 367.64 337.734 367.199 337.429C366.758 337.123 366.257 336.914 365.73 336.815C365.202 336.716 364.66 336.729 364.138 336.854C361.022 337.686 359.039 343.165 358.897 346.042C358.897 346.21 358.995 348.06 359.083 349.229C358.924 348.556 358.782 347.892 358.614 347.193C358.287 345.812 357.915 344.449 357.525 342.979L356.879 340.837C356.684 340.12 356.383 339.394 356.127 338.66C355.507 336.969 354.808 335.287 354.055 333.614C355.259 333.322 359.535 332.233 361.252 330.914C362.969 329.595 364.793 327.462 364.793 325.178C364.807 324.642 364.708 324.11 364.503 323.614C364.298 323.119 363.99 322.672 363.602 322.303C363.213 321.934 362.75 321.651 362.245 321.473C361.74 321.294 361.202 321.223 360.668 321.266C357.455 321.611 354.666 326.727 354.082 329.551C354.082 329.728 353.861 331.799 353.781 332.941C353.321 331.941 352.896 330.932 352.365 329.932C350.931 327.046 349.391 324.16 347.868 321.284L346.478 318.628C346.912 318.522 352.02 317.345 353.94 315.866C355.649 314.556 357.481 312.405 357.481 310.13C357.497 309.594 357.399 309.061 357.194 308.565C356.989 308.069 356.682 307.621 356.293 307.252C355.904 306.883 355.441 306.6 354.935 306.422C354.429 306.244 353.891 306.174 353.356 306.218C350.143 306.563 347.364 311.679 346.779 314.503C346.779 314.716 346.461 317.699 346.434 318.46C345.425 316.512 344.434 314.565 343.531 312.609C342.307 309.965 341.254 307.245 340.38 304.465C340.583 304.421 345.921 303.208 347.886 301.695C349.603 300.385 351.426 298.242 351.426 295.959C351.441 295.423 351.342 294.89 351.137 294.395C350.931 293.899 350.624 293.453 350.235 293.084C349.846 292.715 349.384 292.432 348.879 292.253C348.373 292.074 347.836 292.004 347.302 292.046C344.088 292.391 341.309 297.508 340.725 300.332C340.68 300.553 340.388 303.766 340.38 304.35C340.326 304.191 340.256 304.032 340.211 303.872C339.415 301.058 338.867 298.179 338.574 295.268C338.397 293.666 338.317 292.126 338.273 290.621C339.282 290.497 343.929 289.878 345.85 288.718C347.771 287.558 349.736 285.664 349.966 283.407C350.04 282.876 350 282.335 349.851 281.82C349.701 281.305 349.445 280.827 349.098 280.418C348.752 280.008 348.323 279.677 347.839 279.444C347.356 279.212 346.829 279.084 346.292 279.07C343.062 279.07 339.733 283.841 338.839 286.585C338.795 286.726 338.468 288.302 338.255 289.453C338.255 288.771 338.255 288.072 338.255 287.417C338.255 284.974 338.414 282.743 338.565 280.76C338.662 279.636 338.768 278.618 338.884 277.671C339.822 277.034 343.557 274.396 344.699 272.51C345.841 270.625 346.744 268.014 345.903 265.898C345.724 265.393 345.44 264.931 345.07 264.542C344.701 264.153 344.253 263.847 343.757 263.642C343.261 263.438 342.728 263.34 342.192 263.355C341.656 263.37 341.129 263.498 340.645 263.73C337.777 265.217 337.016 270.988 337.494 273.838C337.538 274.086 338.618 277.857 338.671 277.822H338.724C338.6 278.707 338.476 279.707 338.361 280.778C338.158 282.761 337.954 284.991 337.901 287.443C337.812 290.086 337.874 292.731 338.087 295.366C338.317 298.316 338.809 301.239 339.556 304.102C339.556 304.102 339.556 304.173 339.556 304.209C339.043 303.412 337.547 301.226 337.414 301.066C335.529 298.889 330.598 295.755 327.677 297.048C327.19 297.271 326.754 297.594 326.4 297.996C326.045 298.398 325.779 298.87 325.619 299.382C325.458 299.894 325.408 300.433 325.469 300.966C325.531 301.499 325.704 302.012 325.978 302.474C327.075 304.474 329.704 305.466 331.838 305.775C334.245 306.121 339.3 304.651 339.707 304.536C340.536 307.431 341.559 310.267 342.769 313.025C343.469 314.636 344.221 316.238 344.991 317.831C344.531 317.159 344.106 316.557 344.044 316.477C342.159 314.3 337.228 311.166 334.254 312.458C333.767 312.682 333.333 313.006 332.979 313.409C332.625 313.811 332.36 314.283 332.201 314.795C332.041 315.307 331.991 315.846 332.054 316.378C332.116 316.911 332.29 317.424 332.563 317.884C333.661 319.885 336.29 320.876 338.423 321.186C340.557 321.496 344.92 320.301 346.071 320.009C346.372 320.62 346.664 321.23 346.956 321.841C348.417 324.753 349.895 327.657 351.249 330.551C351.736 331.569 352.135 332.596 352.604 333.614C352.197 333.012 351.843 332.516 351.781 332.446C349.895 330.259 344.965 327.135 341.999 328.418C341.512 328.641 341.077 328.964 340.722 329.366C340.367 329.769 340.101 330.241 339.941 330.753C339.781 331.264 339.73 331.804 339.792 332.337C339.853 332.869 340.027 333.383 340.3 333.844C341.397 335.845 344.026 336.836 346.16 337.146C348.293 337.456 352.241 336.402 353.595 336.031C354.02 337.084 354.48 338.146 354.79 339.191C355.02 339.908 355.295 340.589 355.481 341.324C355.666 342.059 355.879 342.758 356.082 343.466C356.41 344.847 356.764 346.272 357.047 347.626C357.26 348.565 357.437 349.467 357.623 350.37C357.154 349.352 356.206 347.37 356.109 347.219C354.569 344.776 350.17 340.961 347.045 341.758C346.529 341.904 346.049 342.157 345.637 342.501C345.226 342.845 344.891 343.272 344.655 343.754C344.42 344.236 344.289 344.762 344.27 345.298C344.252 345.834 344.347 346.368 344.549 346.865C345.328 349.007 347.78 350.406 349.86 351.017C352.135 351.707 357.154 351.07 357.826 351.017C358.127 352.521 358.402 353.982 358.641 355.363C359.012 357.443 359.313 359.373 359.57 361.125H356.383V396.01H370.281V361.046H368.44C368.988 359.789 369.555 358.452 370.148 357.018C370.741 355.584 371.343 354.035 371.918 352.442C372.52 352.566 377.495 353.575 379.814 353.052C381.912 352.574 384.461 351.388 385.399 349.308C385.643 348.826 385.782 348.297 385.806 347.757C385.83 347.217 385.739 346.678 385.539 346.176C385.339 345.674 385.034 345.22 384.645 344.844C384.257 344.469 383.793 344.18 383.284 343.997C380.23 342.97 375.556 346.44 373.839 348.759C373.742 348.901 372.812 350.53 372.237 351.53C372.485 350.884 372.724 350.246 372.972 349.574C373.458 348.237 373.91 346.918 374.397 345.458L375.034 343.316C375.264 342.607 375.415 341.828 375.609 341.076C376.025 339.306 376.362 337.535 376.663 335.765C377.831 336.19 381.974 337.642 384.151 337.482C386.329 337.323 389.002 336.544 390.241 334.632C390.55 334.193 390.763 333.694 390.866 333.167C390.969 332.64 390.96 332.097 390.839 331.574C390.718 331.051 390.488 330.56 390.163 330.132C389.839 329.704 389.428 329.349 388.958 329.091C386.09 327.613 380.938 330.339 378.902 332.375C378.77 332.508 377.468 334.145 376.769 335.03C376.937 333.942 377.114 332.853 377.256 331.746C377.654 328.542 377.955 325.293 378.274 322.009C378.371 321.018 378.477 320.027 378.584 319.035C378.991 319.195 383.895 321.027 386.329 320.85C388.471 320.699 391.171 319.912 392.41 318C392.719 317.561 392.932 317.061 393.035 316.535C393.138 316.008 393.129 315.465 393.008 314.942C392.886 314.419 392.656 313.927 392.332 313.499C392.008 313.071 391.597 312.717 391.127 312.458C388.259 310.98 383.116 313.706 381.071 315.742C380.92 315.902 379.044 318.239 378.601 318.858C378.831 316.672 379.079 314.503 379.416 312.37C379.848 309.491 380.469 306.643 381.275 303.846C381.469 303.916 386.586 305.846 389.064 305.678C391.215 305.527 393.906 304.731 395.154 302.828C395.46 302.388 395.671 301.889 395.773 301.362C395.874 300.836 395.864 300.294 395.743 299.772C395.622 299.25 395.393 298.759 395.07 298.331C394.748 297.903 394.339 297.547 393.871 297.287C390.994 295.799 385.851 298.535 383.806 300.57C383.647 300.73 381.637 303.226 381.301 303.731C381.354 303.562 381.381 303.394 381.434 303.235C382.316 300.448 383.447 297.746 384.815 295.162C385.55 293.728 386.329 292.391 387.117 291.108C388.002 291.568 392.251 293.613 394.499 293.71C396.747 293.808 399.438 293.33 400.908 291.559C401.263 291.157 401.53 290.685 401.69 290.173C401.85 289.661 401.901 289.12 401.838 288.587C401.776 288.054 401.601 287.541 401.326 287.08C401.052 286.619 400.683 286.221 400.244 285.912C397.588 284.142 392.136 286.275 389.887 288.072C389.763 288.169 388.622 289.302 387.807 290.134C388.179 289.559 388.542 288.966 388.905 288.426C390.25 286.39 391.613 284.611 392.835 283.044C393.534 282.159 394.189 281.371 394.8 280.645C395.942 280.645 400.509 280.486 402.51 279.548C404.51 278.609 406.688 276.892 407.157 274.688C407.28 274.167 407.293 273.627 407.195 273.101C407.096 272.575 406.888 272.076 406.585 271.635C406.281 271.195 405.888 270.823 405.432 270.544C404.975 270.264 404.465 270.084 403.935 270.014ZM368.378 356.283C367.634 358.009 366.908 359.594 366.227 361.054H361.376C361.075 359.204 360.712 357.16 360.269 354.938C359.968 353.415 359.614 351.796 359.243 350.131C360.757 349.525 362.235 348.83 363.668 348.051C365.324 349.822 369.555 351.937 370.104 352.203C369.519 353.619 368.944 354.991 368.378 356.283Z" fill="#263238"/>
<path d="M387.01 290.559C387.064 290.559 388.046 286.788 388.082 286.54C388.48 283.681 387.568 277.928 384.656 276.529C384.167 276.309 383.637 276.194 383.101 276.193C382.565 276.191 382.034 276.302 381.544 276.519C381.054 276.737 380.615 277.055 380.256 277.453C379.896 277.851 379.625 278.321 379.46 278.831C378.681 280.973 379.664 283.602 380.841 285.407C382.213 287.532 387.01 290.55 387.01 290.559Z" fill="#263238"/>
<path d="M405.935 395.762H417.159" stroke="#263238" stroke-width="0.465314" stroke-linecap="round" stroke-linejoin="round"/>
<path d="M396.349 395.762H400.775" stroke="#263238" stroke-width="0.465314" stroke-linecap="round" stroke-linejoin="round"/>
<path d="M5.5537 395.762H393.154" stroke="#263238" stroke-width="0.465314" stroke-linecap="round" stroke-linejoin="round"/>
</svg>
